<svg width="40" height="40" viewBox="0 0 40 40" fill="none" xmlns="http://www.w3.org/2000/svg">
<circle cx="20" cy="20" r="20" fill="black"/>
<path d="M20.7831 21.5528V30.0383H17.7649V21.5528V21.0528H17.2649H14.5V18.3358H17.2649H17.7649V17.8358V15.003C17.7649 13.4914 18.2131 12.3796 18.9456 11.6464C19.6787 10.9126 20.7543 10.5 22.1218 10.5C22.7986 10.5 23.4973 10.5606 24.0311 10.6223C24.2092 10.6428 24.3678 10.6634 24.5 10.6816V12.9157H23.3786C22.4713 12.9157 21.7944 13.2017 21.3536 13.7113C20.9246 14.2075 20.7831 14.8426 20.7831 15.4238V17.8358V18.3358H21.2831H24.267L23.85 21.0528H21.2831H20.7831V21.5528Z" stroke="white"/>
</svg>
