<svg width="40" height="40" viewBox="0 0 40 40" fill="none" xmlns="http://www.w3.org/2000/svg">
<circle cx="20" cy="20" r="20" fill="black"/>
<path d="M20.002 15.384C17.4481 15.384 15.3881 17.4441 15.3881 19.998C15.3881 22.5519 17.4481 24.6119 20.002 24.6119C22.5559 24.6119 24.616 22.5519 24.616 19.998C24.616 17.4441 22.5559 15.384 20.002 15.384ZM20.002 22.9977C18.3516 22.9977 17.0023 21.6524 17.0023 19.998C17.0023 18.3436 18.3476 16.9983 20.002 16.9983C21.6564 16.9983 23.0017 18.3436 23.0017 19.998C23.0017 21.6524 21.6524 22.9977 20.002 22.9977ZM25.8809 15.1953C25.8809 15.7936 25.399 16.2715 24.8047 16.2715C24.2064 16.2715 23.7285 15.7896 23.7285 15.1953C23.7285 14.601 24.2104 14.1191 24.8047 14.1191C25.399 14.1191 25.8809 14.601 25.8809 15.1953ZM28.9368 16.2876C28.8685 14.846 28.5392 13.569 27.4831 12.5169C26.431 11.4648 25.154 11.1355 23.7124 11.0632C22.2267 10.9789 17.7733 10.9789 16.2876 11.0632C14.85 11.1315 13.573 11.4608 12.5169 12.5129C11.4608 13.565 11.1355 14.8419 11.0632 16.2835C10.9789 17.7693 10.9789 22.2226 11.0632 23.7084C11.1315 25.15 11.4608 26.427 12.5169 27.4791C13.573 28.5312 14.846 28.8605 16.2876 28.9327C17.7733 29.0171 22.2267 29.0171 23.7124 28.9327C25.154 28.8645 26.431 28.5352 27.4831 27.4791C28.5352 26.427 28.8645 25.15 28.9368 23.7084C29.0211 22.2226 29.0211 17.7733 28.9368 16.2876ZM27.0173 25.3026C26.7041 26.0897 26.0977 26.696 25.3066 27.0133C24.122 27.4831 21.3111 27.3747 20.002 27.3747C18.6929 27.3747 15.878 27.4791 14.6974 27.0133C13.9103 26.7001 13.304 26.0937 12.9867 25.3026C12.5169 24.118 12.6253 21.3071 12.6253 19.998C12.6253 18.6889 12.5209 15.874 12.9867 14.6934C13.2999 13.9063 13.9063 13.2999 14.6974 12.9827C15.882 12.5129 18.6929 12.6213 20.002 12.6213C21.3111 12.6213 24.126 12.5169 25.3066 12.9827C26.0937 13.2959 26.7001 13.9023 27.0173 14.6934C27.4871 15.878 27.3787 18.6889 27.3787 19.998C27.3787 21.3071 27.4871 24.122 27.0173 25.3026Z" fill="white"/>
</svg>
