<svg width="27" height="27" viewBox="0 0 27 27" fill="none" xmlns="http://www.w3.org/2000/svg">
<path d="M13.1429 6.40214C9.41419 6.40214 6.40657 9.41043 6.40657 13.14C6.40657 16.8696 9.41419 19.8779 13.1429 19.8779C16.8717 19.8779 19.8793 16.8696 19.8793 13.14C19.8793 9.41043 16.8717 6.40214 13.1429 6.40214ZM13.1429 17.5205C10.7333 17.5205 8.76342 15.556 8.76342 13.14C8.76342 10.724 10.7275 8.75951 13.1429 8.75951C15.5584 8.75951 17.5224 10.724 17.5224 13.14C17.5224 15.556 15.5525 17.5205 13.1429 17.5205ZM21.7261 6.12653C21.7261 7.00028 21.0225 7.69811 20.1548 7.69811C19.2813 7.69811 18.5836 6.99442 18.5836 6.12653C18.5836 5.25864 19.2871 4.55495 20.1548 4.55495C21.0225 4.55495 21.7261 5.25864 21.7261 6.12653ZM26.1877 7.72156C26.088 5.61635 25.6072 3.75156 24.0653 2.21517C22.5293 0.67877 20.6649 0.197914 18.5602 0.0923597C16.3909 -0.0307866 9.88908 -0.0307866 7.71984 0.0923597C5.62096 0.19205 3.75659 0.672906 2.21467 2.2093C0.672756 3.7457 0.197869 5.61049 0.0923391 7.7157C-0.0307797 9.88542 -0.0307797 16.3887 0.0923391 18.5584C0.192007 20.6637 0.672756 22.5284 2.21467 24.0648C3.75659 25.6012 5.6151 26.0821 7.71984 26.1876C9.88908 26.3108 16.3909 26.3108 18.5602 26.1876C20.6649 26.088 22.5293 25.6071 24.0653 24.0648C25.6014 22.5284 26.0821 20.6637 26.1877 18.5584C26.3108 16.3887 26.3108 9.89128 26.1877 7.72156ZM23.3852 20.8865C22.9279 22.0359 22.0427 22.9213 20.8877 23.3846C19.1582 24.0707 15.0542 23.9124 13.1429 23.9124C11.2317 23.9124 7.12184 24.0648 5.39817 23.3846C4.24906 22.9272 3.36378 22.0417 2.90062 20.8865C2.21467 19.1566 2.37297 15.0517 2.37297 13.14C2.37297 11.2283 2.22054 7.11756 2.90062 5.39351C3.35792 4.24415 4.2432 3.35867 5.39817 2.8954C7.1277 2.2093 11.2317 2.36763 13.1429 2.36763C15.0542 2.36763 19.164 2.21517 20.8877 2.8954C22.0368 3.3528 22.9221 4.23828 23.3852 5.39351C24.0712 7.12343 23.9129 11.2283 23.9129 13.14C23.9129 15.0517 24.0712 19.1624 23.3852 20.8865Z" fill="white"/>
</svg>
