<svg width="60" height="60" viewBox="0 0 60 60" fill="none" xmlns="http://www.w3.org/2000/svg">
<path d="M15.237 38.4405L14.9663 38.7112L15.7118 39.4567L15.54 39.6285L14.7945 38.883L14.5238 39.1537L14.3843 39.0142L15.0975 38.301L15.237 38.4405ZM16.3965 38.256L16.0103 37.3882L16.257 37.1415L17.142 38.025L16.9808 38.1862L16.2893 37.4947L16.2848 37.4992L16.7123 38.4547L16.5923 38.5747L15.6368 38.148L15.6323 38.1517L16.3238 38.8432L16.1625 39.0045L15.2783 38.1195L15.525 37.875L16.3965 38.256Z" fill="white"/>
<path d="M24.6705 23.964L25.23 25.6867L23.7645 24.6225L22.2998 25.6867L22.8593 23.964L21.3945 22.8997H23.2058L23.7645 21.1777L24.324 22.8997H26.1345L24.6705 23.964Z" fill="white"/>
<path d="M16.2405 23.964L17.7052 22.8997H15.8947L15.3345 21.1777L14.7757 22.8997H12.9645L14.4292 23.964L13.8697 25.6867L15.3345 24.6225L16.7992 25.6867L16.2405 23.964Z" fill="white"/>
<path d="M20.1097 28.5075L19.5502 26.7855L18.9907 28.5075H17.1794L18.6442 29.5718L18.0847 31.2938L19.5502 30.2295L21.0142 31.2938L20.4554 29.5718L21.9194 28.5075H20.1097Z" fill="white"/>
<path d="M14.6303 17.2208L12.969 13.4385H12.9165V18.4868C12.9176 18.5044 12.915 18.522 12.9087 18.5385C12.9025 18.5551 12.8928 18.57 12.8803 18.5825C12.8678 18.595 12.8528 18.6047 12.8363 18.6109C12.8198 18.6172 12.8022 18.6199 12.7845 18.6188H11.295C11.2774 18.6197 11.2598 18.617 11.2434 18.6107C11.2269 18.6044 11.212 18.5947 11.1995 18.5823C11.1871 18.5698 11.1774 18.5549 11.1711 18.5384C11.1648 18.5219 11.1621 18.5043 11.163 18.4868V9.78676C11.1621 9.7692 11.1648 9.75163 11.1711 9.73521C11.1774 9.71878 11.1871 9.70388 11.1996 9.69148C11.212 9.67908 11.227 9.66946 11.2434 9.66326C11.2599 9.65706 11.2775 9.65442 11.295 9.65551H12.864C12.9087 9.65093 12.9535 9.66135 12.9915 9.68512C13.0296 9.70889 13.0586 9.74465 13.074 9.78676L15.3413 14.901H15.3945L17.625 9.78676C17.6406 9.74445 17.6699 9.70857 17.7082 9.6848C17.7466 9.66102 17.7917 9.65071 17.8365 9.65551H19.3785C19.3961 9.65441 19.4136 9.65705 19.43 9.66326C19.4465 9.66946 19.4614 9.67909 19.4738 9.69151C19.4862 9.70392 19.4958 9.71883 19.502 9.73526C19.5082 9.75168 19.5109 9.76923 19.5098 9.78676V18.4868C19.5109 18.5043 19.5082 18.5219 19.502 18.5384C19.4958 18.5548 19.4862 18.5698 19.4738 18.5822C19.4614 18.5947 19.4465 18.6044 19.4301 18.6107C19.4137 18.617 19.3961 18.6197 19.3785 18.6188H17.8853C17.8677 18.6197 17.8502 18.617 17.8337 18.6107C17.8173 18.6044 17.8024 18.5947 17.79 18.5822C17.7776 18.5698 17.768 18.5548 17.7618 18.5384C17.7556 18.5219 17.753 18.5043 17.754 18.4868V13.4385H17.7L16.0388 17.2208C16.0214 17.2729 15.9874 17.3178 15.942 17.3488C15.8967 17.3798 15.8424 17.3952 15.7875 17.3925H14.88C14.8254 17.395 14.7714 17.3795 14.7263 17.3485C14.6813 17.3175 14.6475 17.2727 14.6303 17.2208Z" fill="white"/>
<path d="M20.8447 18.6188H26.6843C26.7018 18.6197 26.7194 18.617 26.7359 18.6107C26.7524 18.6044 26.7673 18.5947 26.7798 18.5823C26.7922 18.5698 26.8019 18.5549 26.8082 18.5384C26.8145 18.522 26.8172 18.5044 26.8162 18.4868V17.025C26.8172 17.0074 26.8145 16.9898 26.8082 16.9734C26.8019 16.9569 26.7922 16.942 26.7798 16.9295C26.7673 16.9171 26.7524 16.9074 26.7359 16.9011C26.7194 16.8948 26.7018 16.892 26.6843 16.893H22.7303C22.7194 16.8947 22.7084 16.8938 22.698 16.8903C22.6876 16.8869 22.6781 16.8811 22.6704 16.8734C22.6626 16.8656 22.6568 16.8562 22.6534 16.8458C22.65 16.8354 22.6491 16.8243 22.6508 16.8135V9.78677C22.6517 9.76921 22.649 9.75164 22.6427 9.73522C22.6364 9.71879 22.6267 9.70389 22.6142 9.69149C22.6018 9.67909 22.5868 9.66947 22.5703 9.66327C22.5539 9.65707 22.5363 9.65443 22.5187 9.65552H20.8447C20.8272 9.65442 20.8097 9.65706 20.7933 9.66327C20.7768 9.66947 20.7619 9.67911 20.7495 9.69152C20.7371 9.70393 20.7275 9.71885 20.7213 9.73527C20.715 9.75169 20.7124 9.76924 20.7135 9.78677V18.4868C20.7124 18.5043 20.7151 18.5219 20.7213 18.5384C20.7275 18.5548 20.7371 18.5698 20.7495 18.5822C20.7619 18.5947 20.7768 18.6044 20.7932 18.6107C20.8096 18.617 20.8272 18.6198 20.8447 18.6188Z" fill="white"/>
<path d="M31.6793 13.227L31.2052 13.161C30.177 13.0163 29.808 12.687 29.808 12.1733C29.808 11.6055 30.216 11.1983 31.008 11.1983C31.746 11.1983 32.4045 11.4353 33.0907 11.8838C33.1054 11.8934 33.1218 11.9 33.1391 11.9032C33.1563 11.9064 33.174 11.9061 33.1912 11.9023C33.2083 11.8985 33.2245 11.8914 33.2388 11.8812C33.2531 11.8711 33.2653 11.8582 33.2745 11.8433L34.0793 10.6433C34.1445 10.551 34.1317 10.4985 34.053 10.446C33.303 9.86551 32.1937 9.51001 31.008 9.51001C29.07 9.51001 27.831 10.6043 27.831 12.252C27.831 13.8338 28.8457 14.6903 30.6652 14.9408L31.14 15.006C32.2073 15.1515 32.5237 15.4815 32.5237 16.0088C32.5237 16.641 31.9988 17.076 31.0605 17.076C30.1118 17.076 29.3077 16.626 28.7145 16.1535C28.7012 16.1403 28.6852 16.1301 28.6676 16.1236C28.6501 16.117 28.6313 16.1142 28.6126 16.1154C28.5939 16.1166 28.5757 16.1218 28.5591 16.1306C28.5426 16.1393 28.528 16.1515 28.5165 16.1663L27.5152 17.313C27.4878 17.3448 27.4737 17.3861 27.4761 17.4281C27.4785 17.4701 27.4971 17.5095 27.528 17.538C28.2263 18.213 29.5837 18.7643 30.9817 18.7643C33.3015 18.7643 34.5015 17.5643 34.5015 15.9435C34.5015 14.3228 33.5265 13.4783 31.68 13.2278" fill="white"/>
<path d="M52.956 6.53925V5.51025H7.04399V6.53925C7.04399 6.53925 7.04399 23.8845 7.04399 23.988C7.03275 30.897 9.28656 37.6192 13.4602 43.125C13.5247 43.2105 13.5907 43.2953 13.6567 43.38L7.63049 49.4055L9.08624 50.8613L14.973 44.9745C16.6522 46.8776 18.5529 48.5732 20.6347 50.025C23.4057 51.9609 26.4698 53.439 29.7097 54.4028L30.0037 54.4898L30.2977 54.4028C33.5355 53.439 36.4672 51.7778 39.3727 50.025C42.8677 47.91 44.8477 45.705 46.5472 43.125C48.4087 40.3005 50.1772 37.4453 51.2662 34.2578C52.3949 30.9524 52.9689 27.483 52.965 23.9903C52.9575 23.8845 52.956 6.53925 52.956 6.53925ZM15.1012 41.88C11.1983 36.7327 9.09066 30.4477 9.10124 23.988C9.10124 23.9003 9.10124 11.3003 9.10124 7.569H49.4655L15.1245 41.91C15.117 41.9003 15.1087 41.8905 15.1012 41.88ZM49.311 33.5895C47.7937 38.0135 45.2542 42.0172 41.8988 45.2752C38.5434 48.5333 34.4667 50.9539 30 52.3403C24.7474 50.7111 20.0504 47.6553 16.4325 43.5135L50.8972 9.04875C50.8972 13.8578 50.8972 23.9093 50.8972 23.988C50.9012 27.254 50.3652 30.4983 49.311 33.5895Z" fill="white"/>
</svg>
