<svg width="27" height="19" viewBox="0 0 27 19" fill="none" xmlns="http://www.w3.org/2000/svg">
<path d="M25.7309 2.8912C25.4286 1.75316 24.5381 0.856874 23.4074 0.552707C21.358 0 13.14 0 13.14 0C13.14 0 4.92206 0 2.87257 0.552707C1.7419 0.856922 0.851388 1.75316 0.549146 2.8912C0 4.95396 0 9.25772 0 9.25772C0 9.25772 0 13.5615 0.549146 15.6242C0.851388 16.7623 1.7419 17.6212 2.87257 17.9254C4.92206 18.4781 13.14 18.4781 13.14 18.4781C13.14 18.4781 21.3579 18.4781 23.4074 17.9254C24.5381 17.6212 25.4286 16.7623 25.7309 15.6242C26.28 13.5615 26.28 9.25772 26.28 9.25772C26.28 9.25772 26.28 4.95396 25.7309 2.8912ZM10.4523 13.1652V5.35023L17.3209 9.25782L10.4523 13.1652Z" fill="white"/>
</svg>
