<svg width="40" height="40" viewBox="0 0 40 40" fill="none" xmlns="http://www.w3.org/2000/svg">
<circle cx="20" cy="20" r="20" fill="black"/>
<path d="M28.1197 15.2186L28.1198 15.2189C28.3033 15.9081 28.4013 17.0107 28.451 17.9767C28.4755 18.4522 28.4878 18.8823 28.4939 19.1935C28.497 19.349 28.4985 19.4746 28.4992 19.561L28.4999 19.66L28.5 19.6852L28.5 19.6914L28.5 19.6929V19.6931V19.6935L28.5 19.6949L28.5 19.7011L28.4999 19.7264L28.4992 19.8254C28.4985 19.9118 28.497 20.0373 28.4939 20.1928C28.4878 20.504 28.4755 20.9341 28.451 21.4097C28.4013 22.3757 28.3033 23.4783 28.1198 24.1674L28.1197 24.1677C27.9491 24.8102 27.4456 25.3014 26.7933 25.4769L26.793 25.477C26.4748 25.5628 25.8708 25.6356 25.1016 25.6921C24.3465 25.7476 23.4729 25.7848 22.641 25.8096C21.8098 25.8345 21.0242 25.8469 20.4461 25.8531C20.1572 25.8563 19.9203 25.8578 19.7558 25.8586L19.566 25.8593L19.5165 25.8593L19.504 25.8594L19.5009 25.8594L19.5002 25.8594H19.5L19.5 26.3594L19.5 25.8594H19.4998L19.499 25.8594L19.496 25.8594L19.4834 25.8593L19.434 25.8593L19.2442 25.8586C19.0797 25.8578 18.8428 25.8563 18.5539 25.8531C17.9758 25.8469 17.1902 25.8345 16.359 25.8096C15.5271 25.7848 14.6535 25.7476 13.8984 25.6921C13.1292 25.6356 12.5252 25.5628 12.207 25.477L12.2067 25.4769C11.5544 25.3014 11.0509 24.8102 10.8803 24.1677L10.8802 24.1674C10.6967 23.4783 10.5987 22.3757 10.549 21.4097C10.5245 20.9341 10.5122 20.504 10.5061 20.1928C10.503 20.0373 10.5015 19.9118 10.5008 19.8254L10.5001 19.7264L10.5 19.7011L10.5 19.6949L10.5 19.6935L10.5 19.6932V19.6932V19.6932V19.6931L10.5 19.6929L10.5 19.6914L10.5 19.6852L10.5001 19.66L10.5008 19.561C10.5015 19.4746 10.503 19.349 10.5061 19.1935C10.5122 18.8823 10.5245 18.4522 10.549 17.9767C10.5987 17.0107 10.6967 15.9081 10.8802 15.2189L10.8803 15.2186C11.0532 14.5675 11.5632 14.0556 12.2067 13.8824L12.207 13.8824C12.5252 13.7965 13.1292 13.7237 13.8984 13.6672C14.6535 13.6118 15.5271 13.5746 16.359 13.5497C17.1902 13.5249 17.9758 13.5124 18.5539 13.5062C18.8428 13.5031 19.0797 13.5016 19.2442 13.5008L19.434 13.5001L19.4834 13.5L19.496 13.5L19.499 13.5L19.4998 13.5H19.5L19.5 13L19.5 13.5H19.5002L19.5009 13.5L19.504 13.5L19.5165 13.5L19.566 13.5001L19.7558 13.5008C19.9203 13.5016 20.1572 13.5031 20.4461 13.5062C21.0242 13.5124 21.8099 13.5249 22.641 13.5497C23.473 13.5746 24.3465 13.6118 25.1016 13.6672C25.8708 13.7237 26.4748 13.7965 26.793 13.8824L26.7933 13.8824C27.4368 14.0556 27.9468 14.5675 28.1197 15.2186ZM17.0568 22.5182V23.3779L17.804 22.9528L22.7699 20.1278L23.5339 19.6933L22.7699 19.2587L17.804 16.4335L17.0568 16.0084V16.8681V22.5182Z" stroke="white"/>
</svg>
